<svg width="366" height="37" viewBox="0 0 366 37" fill="none" xmlns="http://www.w3.org/2000/svg">
<path d="M18.7874 36.1303C29.1584 36.1303 36.6803 28.6626 36.6803 18.2079C36.6803 7.84707 29.2054 0.379395 18.7874 0.379395C8.3789 0.379395 0.894531 7.84707 0.894531 18.2079C0.894531 28.6626 8.42591 36.1303 18.7874 36.1303ZM18.7874 34.4207C13.0707 34.4207 8.96185 27.6857 8.96185 18.2079C8.96185 8.82397 13.0707 2.08898 18.7874 2.08898C24.5135 2.08898 28.613 8.82397 28.613 18.2079C28.613 27.7327 24.5135 34.4207 18.7874 34.4207ZM44.7477 29.0478L47.1453 23.2897H58.8796L61.7661 29.198C63.1389 32.0818 63.5714 33.8853 59.3215 33.8853V35.3507H75.6066V33.8853C73.5004 33.8853 71.3002 32.0818 69.9275 29.198L56.2939 1.15904H54.6767L43.1398 29.0478C41.9175 31.9785 39.6703 33.8853 36.6333 33.8853V35.3507H47.5402V33.8853C43.2809 33.8853 43.5253 31.9785 44.7477 29.0478ZM58.1932 21.8243H47.7376L52.5705 10.1954L58.1932 21.8243ZM82.1037 7.99736V28.5123C82.1037 31.6873 81.2763 33.8853 78.2393 33.8853V35.3507H93.302V33.8853C90.2744 33.8853 89.4376 31.6873 89.4376 28.5123V7.99736C89.4376 4.82242 90.2744 2.62439 93.302 2.62439V1.15904H78.2393V2.62439C81.2763 2.62439 82.1037 4.82242 82.1037 7.99736ZM100.486 6.33475L89.4376 19.1378L100.194 32.5139C101.811 34.571 103.617 35.3507 106.165 35.3507H115.257V33.8853C112.22 33.8853 109.145 32.4669 107.189 29.9777L95.2107 14.7418L102.498 6.33475C104.594 3.93946 107.819 2.62439 110.856 2.62439V1.15904H101.125V2.62439C104.152 2.62439 102.592 3.93946 100.486 6.33475ZM117.551 2.62439C120.588 2.62439 121.415 4.82242 121.415 7.99736V28.5123C121.415 31.6873 120.588 33.8853 117.551 33.8853V35.3507H144.687L144.931 33.9323L145.862 28.1742L144.734 27.9769C142.044 31.9315 137.259 33.735 132.266 33.8853C129.53 33.735 128.749 31.5933 128.749 28.5123V18.7433H130.611C134.955 18.7433 139.017 19.5699 140.728 22.6039H141.706V13.4173H140.728C139.017 16.4513 134.955 17.2779 130.611 17.2779H128.749V2.62439H131.438C136.619 2.62439 141.509 3.84552 143.568 8.39188H144.734V1.15904H117.551V2.62439ZM154.907 28.5123V6.24081L177.398 35.3507H178.865V7.99736C178.865 4.82242 179.692 2.62439 182.729 2.62439V1.15904H173.533V2.62439C176.57 2.62439 177.398 4.82242 177.398 7.99736V23.3366L160.285 1.15904H149.576V2.62439C152.613 2.62439 153.44 4.82242 153.44 7.99736V28.5123C153.44 31.6873 152.613 33.8853 149.576 33.8853V35.3507H158.771V33.8853C155.734 33.8853 154.907 31.6873 154.907 28.5123ZM189.668 7.99736V28.5123C189.668 31.6873 188.841 33.8853 185.804 33.8853V35.3507H200.866V33.8853C197.839 33.8853 197.002 31.6873 197.002 28.5123V19.382H211.67V28.5123C211.67 31.6873 210.842 33.8853 207.805 33.8853V35.3507H222.868V33.8853C219.84 33.8853 219.004 31.6873 219.004 28.5123V7.99736C219.004 4.82242 219.84 2.62439 222.868 2.62439V1.15904H207.805V2.62439C210.842 2.62439 211.67 4.82242 211.67 7.99736V17.9167H197.002V7.99736C197.002 4.82242 197.839 2.62439 200.866 2.62439V1.15904H185.804V2.62439C188.841 2.62439 189.668 4.82242 189.668 7.99736ZM229.619 7.99736V22.8951C229.619 30.6164 235.138 36.1303 242.82 36.1303C250.446 36.1303 255.532 30.6164 255.532 22.8951V7.99736C255.532 4.82242 256.36 2.62439 259.387 2.62439V1.15904H250.201V2.62439C253.229 2.62439 254.066 4.82242 254.066 7.99736V23.2897C254.066 28.3151 250.446 31.8845 245.453 31.8845C240.517 31.8845 236.953 28.3151 236.953 23.2897V7.99736C236.953 4.82242 237.78 2.62439 240.808 2.62439V1.15904H225.755V2.62439C228.782 2.62439 229.619 4.82242 229.619 7.99736ZM262.274 2.62439C265.311 2.62439 266.138 4.82242 266.138 7.99736V28.5123C266.138 31.6873 265.311 33.8853 262.274 33.8853V35.3507H277.337V33.8853C274.3 33.8853 273.472 31.6873 273.472 28.5123V21.1856H279.433L285.601 31.5933C287.012 33.9323 288.479 35.3507 291.271 35.3507H299.094V33.8853C296.057 33.8853 293.471 32.1288 291.957 29.3389L286.918 20.0114C291.271 18.4521 293.565 15.2772 293.565 11.1253C293.565 5.01968 288.873 1.15904 279.339 1.15904H262.274V2.62439ZM278.211 19.7202H273.472V2.62439H278.211C282.856 2.62439 285.742 5.94962 285.742 11.1253C285.742 16.348 282.611 19.7202 278.211 19.7202ZM315.812 36.1303C322.901 36.1303 328.571 33.1057 328.571 25.9761C328.571 16.4983 309.07 14.4975 309.07 7.8001C309.07 4.28701 312.436 2.08898 316.545 2.08898C320.898 2.08898 324.471 5.11362 326.276 8.43885H327.01L327.057 5.06665C323.926 2.08897 319.582 0.379395 314.589 0.379395C307.547 0.379395 302.714 5.06665 302.714 10.3927C302.714 21.3828 322.121 22.4537 322.121 29.198C322.121 32.6172 318.407 34.4207 314.589 34.4207C309.211 34.4207 305.159 31.1988 303.146 25.7319H302.413L302.366 31.443C305.741 34.4207 310.433 36.1303 315.812 36.1303ZM365.146 2.57743L364.902 1.15904H332.924L332.68 2.57743L331.749 8.33552L332.877 8.53278C335.519 4.5782 340.305 2.82165 345.251 2.62439V28.5123C345.251 31.6873 344.414 33.8853 341.386 33.8853V35.3507H356.44V33.8853C353.412 33.8853 352.585 31.6873 352.585 28.5123V2.62439C357.521 2.82165 362.307 4.5782 364.949 8.53278L366.077 8.33552L365.146 2.57743Z" fill="white"/>
</svg>
